<?xml version="1.0" encoding="UTF-8"?><svg id="a" xmlns="http://www.w3.org/2000/svg" viewBox="0 0 999.7 140.16"><path d="M148,4.93V41.79H54.75v20.44h88.15v35.04H54.75v37.96H0V4.93H148Z"/><path d="M271.73,4.93h54.75V78.29c0,15.45-3.32,27.71-9.95,36.77-6.63,9.06-16.09,15.48-28.38,19.25-12.29,3.77-27.62,5.66-45.99,5.66s-33.7-1.89-45.99-5.66c-12.29-3.77-21.75-10.19-28.38-19.25-6.63-9.06-9.95-21.32-9.95-36.77V4.93h54.75V78.11c0,8.03,2.46,13.66,7.39,16.88,4.93,3.23,12.32,4.84,22.17,4.84s17.25-1.61,22.17-4.84c4.93-3.22,7.39-8.85,7.39-16.88V4.93Z"/><path d="M460.62,57.49c-1.22-11.56-11.13-17.34-29.75-17.34-11.44,0-19.98,2.56-25.64,7.67s-8.49,12.53-8.49,22.26,2.83,17.15,8.49,22.26,14.2,7.66,25.64,7.66c10.7,0,18.25-1.79,22.63-5.38,4.38-3.59,6.87-8.61,7.48-15.06h63.14c-.49,20.2-8.33,35.34-23.54,45.44-15.21,10.1-38.45,15.15-69.71,15.15s-55.21-5.75-70.72-17.25c-15.51-11.5-23.27-29.11-23.27-52.83s7.76-41.34,23.27-52.83C375.66,5.75,399.23,0,430.87,0c60.95,0,91.92,19.16,92.89,57.49h-63.14Z"/><path d="M703.15,4.93l-54.02,46.54,62.96,83.77h-65.7l-35.77-50.37-21.35,18.25v32.12h-54.75V4.93h54.75V51.1l51.65-46.17h62.23Z"/><path d="M833.81,4.93V135.23h-54.75V4.93h54.75Z"/><path d="M843.12,4.93h156.58V43.98h-50.92v91.25h-54.75V43.98h-50.92V4.93Z"/></svg>